<svg xmlns="http://www.w3.org/2000/svg" width="17.676" height="14.244" viewBox="0 0 17.676 14.244"><path d="M17.282,17.244H3.394A1.842,1.842,0,0,1,1.5,15.464V4.781A1.842,1.842,0,0,1,3.394,3H6.55a1.946,1.946,0,0,1,1.515.712L9.391,5.374h7.891a1.842,1.842,0,0,1,1.894,1.781v8.309A1.843,1.843,0,0,1,17.282,17.244ZM3.394,4.187a.613.613,0,0,0-.631.594V15.464a.614.614,0,0,0,.631.594H17.282a.615.615,0,0,0,.631-.594V7.155a.614.614,0,0,0-.631-.594H9.075a.646.646,0,0,1-.505-.237l-1.515-1.9a.648.648,0,0,0-.505-.237Z" transform="translate(-1.5 -3)"/></svg>