<svg xmlns="http://www.w3.org/2000/svg" width="20" height="17.5" viewBox="0 0 20 17.5"><g transform="translate(0 -1.5)"><path d="M18.125,19H1.875A1.877,1.877,0,0,1,0,17.125V3.375A1.877,1.877,0,0,1,1.875,1.5H6.25a1.884,1.884,0,0,1,1.5.75L9.063,4h2.813a.625.625,0,0,1,0,1.25H8.75A.625.625,0,0,1,8.25,5L6.75,3a.628.628,0,0,0-.5-.25H1.875a.625.625,0,0,0-.625.625v13.75a.625.625,0,0,0,.625.625h16.25a.626.626,0,0,0,.625-.625V5.875a.626.626,0,0,0-.625-.625h-1.25a.625.625,0,0,1,0-1.25h1.25A1.877,1.877,0,0,1,20,5.875v11.25A1.877,1.877,0,0,1,18.125,19Z"/><path d="M19.125,12.375a.622.622,0,0,1-.375-.125l-2.125-1.594L14.5,12.25a.625.625,0,0,1-1-.5V4.25A1.252,1.252,0,0,1,14.75,3H18.5a1.252,1.252,0,0,1,1.25,1.25v7.5a.625.625,0,0,1-.625.625Zm-2.5-3.125A.626.626,0,0,1,17,9.375L18.5,10.5V4.25H14.75V10.5l1.5-1.125A.626.626,0,0,1,16.625,9.25Z" transform="translate(-2.25 -0.25)"/></g></svg>