<svg xmlns="http://www.w3.org/2000/svg" width="20" height="20.139" viewBox="0 0 20 20.139"><g transform="translate(-81.805)"><g transform="translate(90.676 9.01)"><path d="M98.13,22.058a5.565,5.565,0,1,1,5.565-5.565A5.572,5.572,0,0,1,98.13,22.058Zm0-9.893a4.328,4.328,0,1,0,4.328,4.328A4.334,4.334,0,0,0,98.13,12.166Z" transform="translate(-92.565 -10.929)"/><path d="M94.941,20.917a.618.618,0,0,1-.437-1.055l6.994-6.993a.618.618,0,1,1,.875.874l-6.994,6.994A.618.618,0,0,1,94.941,20.917Z" transform="translate(-92.874 -11.238)"/></g><path d="M94.08,7.237H85.423a.618.618,0,0,1,0-1.237H94.08a.618.618,0,0,1,0,1.237Z" transform="translate(-0.527 -1.054)"/><path d="M91.526,11.737h-6.1a.618.618,0,0,1,0-1.237h6.1a.618.618,0,1,1,0,1.237Z" transform="translate(-0.527 -1.844)"/><path d="M88.515,16.237H85.423a.618.618,0,0,1,0-1.237h3.092a.618.618,0,1,1,0,1.237Z" transform="translate(-0.527 -2.634)"/><path d="M87.988,17.312H83.66a1.857,1.857,0,0,1-1.855-1.855V1.855A1.857,1.857,0,0,1,83.66,0h8.763a1.844,1.844,0,0,1,1.31.542L96.1,2.911a1.839,1.839,0,0,1,.543,1.311V6.183a.618.618,0,0,1-1.237,0V4.222a.613.613,0,0,0-.181-.437L92.859,1.417a.616.616,0,0,0-.436-.181H83.66a.619.619,0,0,0-.618.618v13.6a.619.619,0,0,0,.618.618h4.328a.618.618,0,1,1,0,1.237Z"/></g></svg>