<svg xmlns="http://www.w3.org/2000/svg" width="20" height="20" viewBox="0 0 20 20"><g transform="translate(-11.167 39.067)"><path d="M24.167-19.067a2.5,2.5,0,0,1-2.5-2.5,2.5,2.5,0,0,1,2.5-2.5,2.5,2.5,0,0,1,2.5,2.5A2.5,2.5,0,0,1,24.167-19.067Zm0-3.75a1.252,1.252,0,0,0-1.25,1.25,1.251,1.251,0,0,0,1.25,1.25,1.25,1.25,0,0,0,1.25-1.25A1.251,1.251,0,0,0,24.167-22.817Z" transform="translate(-1.75 -2.5)"/><path d="M31.667-16.067a2.5,2.5,0,0,1-2.5-2.5,2.5,2.5,0,0,1,2.5-2.5,2.5,2.5,0,0,1,2.5,2.5A2.5,2.5,0,0,1,31.667-16.067Zm0-3.75a1.252,1.252,0,0,0-1.25,1.25,1.251,1.251,0,0,0,1.25,1.25,1.25,1.25,0,0,0,1.25-1.25A1.251,1.251,0,0,0,31.667-19.817Z" transform="translate(-3 -3)"/><path d="M31.667-23.567a2.5,2.5,0,0,1-2.5-2.5,2.5,2.5,0,0,1,2.5-2.5,2.5,2.5,0,0,1,2.5,2.5A2.5,2.5,0,0,1,31.667-23.567Zm0-3.75a1.252,1.252,0,0,0-1.25,1.25,1.251,1.251,0,0,0,1.25,1.25,1.25,1.25,0,0,0,1.25-1.25A1.251,1.251,0,0,0,31.667-27.317Z" transform="translate(-3 -1.75)"/><path d="M26.468-22.087a.625.625,0,0,1-.537-.3.625.625,0,0,1,.214-.858l3.042-1.826a.625.625,0,0,1,.858.215A.625.625,0,0,1,29.83-24l-3.042,1.826A.626.626,0,0,1,26.468-22.087Z" transform="translate(-2.446 -2.317)"/><path d="M29.4-18.624a.632.632,0,0,1-.232-.044L26.4-19.776a.625.625,0,0,1-.348-.813.626.626,0,0,1,.813-.348l2.77,1.108a.625.625,0,0,1,.348.812A.623.623,0,0,1,29.4-18.624Z" transform="translate(-2.473 -3.014)"/><path d="M23.542-31.817h-8.75a.625.625,0,0,1-.625-.625.625.625,0,0,1,.625-.625h8.75a.625.625,0,0,1,.625.625A.625.625,0,0,1,23.542-31.817Z" transform="translate(-0.5 -1)"/><path d="M23.542-27.317h-8.75a.625.625,0,0,1-.625-.625.625.625,0,0,1,.625-.625h8.75a.625.625,0,0,1,.625.625A.625.625,0,0,1,23.542-27.317Z" transform="translate(-0.5 -1.75)"/><path d="M17.917-22.817H14.792a.625.625,0,0,1-.625-.625.625.625,0,0,1,.625-.625h3.125a.625.625,0,0,1,.625.625A.625.625,0,0,1,17.917-22.817Z" transform="translate(-0.5 -2.5)"/><path d="M17.417-21.567H13.042a1.877,1.877,0,0,1-1.875-1.875v-13.75a1.877,1.877,0,0,1,1.875-1.875H21.9a1.891,1.891,0,0,1,1.326.548l2.392,2.394a1.859,1.859,0,0,1,.549,1.325v1.983a.625.625,0,0,1-.625.625.625.625,0,0,1-.625-.625V-34.8a.632.632,0,0,0-.182-.442l-2.392-2.393a.632.632,0,0,0-.443-.183H13.042a.626.626,0,0,0-.625.625v13.75a.626.626,0,0,0,.625.625h4.375a.625.625,0,0,1,.625.625A.625.625,0,0,1,17.417-21.567Z" transform="translate(0 0)"/></g></svg>