<svg xmlns="http://www.w3.org/2000/svg" width="20" height="20" viewBox="0 0 20 20"><path d="M10,20A10,10,0,1,1,20,10,10.011,10.011,0,0,1,10,20ZM10,1.25A8.75,8.75,0,1,0,18.75,10,8.76,8.76,0,0,0,10,1.25Z"/><path d="M8.742,19.781a.624.624,0,0,1-.517-.272C6.832,17.465,6,13.931,6,10.055S6.832,2.645,8.224.6a.625.625,0,1,1,1.033.7C8.019,3.122,7.25,6.474,7.25,10.055s.769,6.933,2.007,8.748a.625.625,0,0,1-.516.977Z" transform="translate(-1 -0.055)"/><path d="M19.375,12.5H.625a.625.625,0,0,1,0-1.25h18.75a.625.625,0,0,1,0,1.25Z" transform="translate(0 -1.875)"/><path d="M18.22,18.5H2.357a.625.625,0,1,1,0-1.25H18.22a.625.625,0,0,1,0,1.25Z" transform="translate(-0.289 -2.875)"/><path d="M18.22,6.5H2.357a.625.625,0,1,1,0-1.25H18.22a.625.625,0,0,1,0,1.25Z" transform="translate(-0.289 -0.875)"/><path d="M14.585,19.781a.625.625,0,0,1-.515-.977c1.238-1.815,2.007-5.167,2.007-8.748s-.769-6.933-2.007-8.748A.625.625,0,1,1,15.1.6c1.393,2.043,2.225,5.577,2.225,9.453S16.5,17.466,15.1,19.508A.622.622,0,0,1,14.585,19.781Z" transform="translate(-2.327 -0.055)"/></svg>