<?xml version="1.0" standalone="no"?>
<!DOCTYPE svg PUBLIC "-//W3C//DTD SVG 20010904//EN"
 "http://www.w3.org/TR/2001/REC-SVG-20010904/DTD/svg10.dtd">
<svg version="1.0" xmlns="http://www.w3.org/2000/svg"
 width="1081.000000pt" height="1081.000000pt" viewBox="0 0 1081.000000 1081.000000"
 preserveAspectRatio="xMidYMid meet">
<metadata>
Created by potrace 1.11, written by Peter Selinger 2001-2013
</metadata>
<g transform="translate(0.000000,1081.000000) scale(0.100000,-0.100000)"
fill="#000000" stroke="none">
<path d="M1259 10756 c-2 -161 -14 -415 -34 -771 -10 -171 -18 -385 -19 -487
-1 -60 -3 -108 -6 -108 -8 0 -5 -105 4 -118 4 -7 3 -12 -1 -12 -10 0 -10 -301
0 -318 5 -6 4 -12 0 -12 -5 0 -8 -15 -6 -32 1 -18 5 -82 8 -143 2 -60 7 -136
10 -168 14 -156 16 -184 20 -207 36 -247 48 -414 48 -665 0 -284 -23 -480 -80
-675 -9 -30 -16 -61 -16 -67 0 -7 -4 -13 -9 -13 -4 0 -8 -9 -8 -19 0 -22 -76
-216 -109 -276 -11 -22 -21 -45 -21 -52 0 -7 -5 -13 -12 -13 -6 0 -8 -3 -5 -6
4 -4 -2 -19 -13 -34 -11 -16 -20 -31 -20 -34 0 -4 -29 -67 -65 -141 -36 -73
-65 -138 -65 -144 0 -6 -4 -11 -10 -11 -5 0 -9 -3 -8 -7 1 -5 -3 -19 -9 -33
-6 -14 -11 -29 -13 -35 -1 -5 -9 -18 -17 -27 -9 -10 -13 -18 -10 -18 3 0 -10
-31 -29 -70 -18 -38 -34 -72 -34 -74 0 -3 -14 -36 -31 -73 -17 -38 -37 -81
-44 -98 -7 -16 -26 -57 -41 -90 -15 -33 -27 -63 -26 -67 1 -5 -3 -8 -8 -8 -5
0 -9 -3 -8 -7 2 -5 -19 -57 -47 -118 -46 -102 -50 -116 -51 -195 l-1 -85 61
-75 c33 -41 65 -80 71 -86 5 -6 28 -32 50 -59 61 -74 124 -147 151 -176 13
-14 24 -28 24 -32 0 -3 10 -17 23 -30 22 -23 30 -32 122 -142 27 -33 54 -65
60 -71 5 -6 26 -31 47 -55 20 -24 44 -54 55 -66 10 -12 34 -40 53 -63 19 -23
40 -47 45 -54 6 -6 44 -51 85 -101 41 -49 77 -92 80 -95 3 -3 27 -32 54 -65
28 -33 57 -68 65 -77 19 -21 29 -32 93 -111 28 -34 60 -72 72 -84 12 -12 26
-28 31 -35 24 -31 142 -173 166 -198 14 -15 36 -42 50 -59 13 -18 39 -48 57
-69 19 -20 46 -53 60 -72 15 -19 34 -42 42 -50 8 -9 31 -36 52 -61 20 -24 46
-55 58 -69 12 -14 45 -53 73 -87 28 -35 54 -63 58 -63 4 0 10 -8 13 -17 4 -10
23 -36 42 -58 20 -22 51 -57 69 -77 l32 -38 55 53 c136 127 168 157 168 154 0
-2 26 21 58 52 212 204 338 311 308 262 -29 -46 -23 -685 7 -816 3 -11 8 -49
11 -85 4 -36 9 -77 11 -90 3 -14 8 -41 11 -60 10 -63 11 -69 30 -160 3 -14 7
-34 8 -45 2 -11 7 -28 11 -37 4 -9 4 -22 0 -28 -3 -5 -1 -10 5 -10 7 0 10 -6
7 -14 -3 -8 -3 -17 1 -20 3 -4 7 -15 9 -26 2 -11 4 -28 6 -37 1 -10 6 -24 10
-31 5 -6 5 -17 2 -22 -3 -5 -2 -10 2 -10 5 0 10 -11 11 -26 1 -14 6 -34 12
-44 6 -11 12 -32 14 -47 4 -29 96 -311 140 -424 14 -37 22 -69 19 -73 -4 -3
-2 -6 4 -6 5 0 23 -33 38 -72 16 -40 31 -75 34 -78 3 -3 7 -12 9 -20 6 -24
102 -218 154 -308 27 -46 48 -88 48 -93 0 -5 5 -9 10 -9 6 0 10 -5 10 -10 0
-11 127 -200 140 -210 4 -3 9 -10 11 -16 18 -50 295 -324 328 -324 6 0 11 -4
11 -8 0 -8 139 -82 153 -82 4 0 5 19 2 43 -7 59 -13 120 -20 202 -4 39 -8 86
-11 105 -25 201 -25 542 0 655 21 91 63 188 102 234 14 17 23 31 20 31 -4 0
26 29 66 65 39 36 76 65 80 65 5 0 21 11 36 25 15 14 30 25 33 25 4 0 36 17
70 38 35 21 91 51 124 67 33 17 63 34 66 38 3 5 8 8 10 7 2 -1 35 13 72 30
l69 32 -6 51 c-4 29 -9 68 -12 87 -6 39 -9 67 -18 155 -4 33 -9 67 -11 75 -2
8 -7 40 -11 70 -8 74 -12 108 -19 155 -10 74 -16 120 -19 150 -2 17 -5 30 -6
30 -1 0 -3 14 -5 30 -11 108 -15 143 -19 170 -3 17 -8 50 -11 75 -3 25 -8 59
-10 75 -10 62 -35 253 -40 290 -1 17 -8 68 -15 115 -6 47 -13 101 -15 120 -2
19 -7 53 -10 75 -7 56 -14 103 -20 155 -3 25 -8 63 -11 85 -3 22 -7 58 -9 80
-3 22 -6 58 -9 80 -3 22 -8 65 -11 95 -4 30 -8 69 -10 85 -3 17 -6 55 -9 85
-3 30 -5 55 -6 55 -4 0 -15 97 -25 220 -2 22 -4 40 -5 40 -2 0 -7 52 -14 140
-3 33 -7 76 -10 95 -7 46 -18 170 -18 193 1 9 -2 16 -6 13 -4 -2 -7 12 -6 32
1 19 -3 54 -8 76 -5 23 -12 52 -14 66 -3 14 -14 56 -25 95 -27 93 -25 86 -38
120 -6 17 -11 32 -10 35 1 6 -112 233 -120 240 -3 3 -12 17 -20 33 -8 15 -18
27 -23 27 -4 0 -8 5 -8 11 0 31 -196 236 -305 320 -38 30 -71 57 -73 61 -2 5
-8 8 -13 8 -20 0 -183 148 -262 240 -36 42 -78 100 -71 100 4 0 -2 8 -12 18
-11 9 -39 58 -63 107 -56 115 -60 126 -64 150 -1 11 -6 25 -9 31 -4 6 -9 21
-12 35 -3 13 -7 35 -11 49 -15 68 -18 107 -19 255 -1 144 6 238 20 288 3 10 7
30 9 45 2 15 11 56 20 92 9 36 18 76 21 90 2 14 7 32 10 40 3 8 8 33 11 55 2
22 9 58 13 79 9 43 6 308 -4 371 -10 64 -44 189 -66 247 -27 69 -107 227 -133
263 -124 170 -113 157 -287 345 -167 182 -204 222 -240 260 -30 32 -140 154
-190 210 -8 9 -40 45 -70 80 -30 34 -71 79 -90 99 -19 21 -64 70 -100 111 -36
41 -84 94 -106 119 -23 26 -65 73 -94 106 -29 33 -62 69 -74 81 -11 12 -34 37
-49 57 -16 20 -47 56 -70 80 -23 24 -67 73 -97 107 -112 128 -190 217 -215
244 -11 12 -49 55 -85 96 -70 79 -149 166 -192 212 -14 15 -25 28 -23 28 2 0
-13 17 -33 37 -30 32 -43 38 -79 38 l-43 1 -1 -50z"/>
<path d="M9411 10760 c-22 -25 -53 -61 -71 -80 -17 -19 -57 -64 -88 -99 -31
-36 -66 -75 -77 -87 -11 -12 -45 -50 -75 -85 -30 -34 -68 -77 -85 -95 -16 -17
-45 -49 -64 -70 -69 -80 -147 -168 -176 -199 -16 -18 -55 -61 -85 -96 -30 -35
-66 -75 -80 -90 -14 -15 -36 -40 -49 -56 -22 -25 -80 -91 -183 -206 -21 -22
-38 -45 -38 -50 0 -4 -4 -5 -10 -2 -5 3 -10 1 -10 -4 0 -6 -21 -34 -47 -62
-27 -29 -61 -66 -78 -84 -16 -18 -52 -59 -80 -90 -27 -32 -70 -79 -95 -105
-25 -27 -76 -83 -115 -126 -77 -84 -84 -93 -219 -239 -51 -55 -106 -115 -122
-134 -16 -18 -40 -45 -53 -59 -13 -14 -48 -62 -77 -106 -30 -45 -58 -86 -63
-92 -13 -16 -84 -168 -109 -234 -11 -30 -28 -89 -37 -130 -9 -41 -20 -93 -25
-114 -5 -22 -7 -112 -6 -200 3 -149 6 -176 22 -246 3 -14 8 -36 11 -50 2 -14
13 -59 23 -100 22 -86 29 -121 36 -170 2 -19 8 -60 13 -90 12 -71 4 -405 -9
-405 -1 0 -3 -12 -5 -26 -2 -14 -9 -45 -16 -70 -7 -24 -13 -47 -13 -51 -1 -3
-4 -10 -8 -14 -5 -4 -8 -14 -8 -22 0 -28 -121 -256 -150 -282 -3 -3 -17 -21
-31 -40 -29 -38 -169 -184 -169 -175 0 2 -15 -10 -34 -28 -19 -17 -60 -50 -90
-72 -30 -22 -55 -43 -56 -47 0 -5 -6 -8 -13 -8 -7 0 -51 -36 -97 -80 -47 -44
-89 -80 -94 -80 -5 0 -7 -3 -3 -6 3 -3 -4 -16 -16 -28 -36 -34 -130 -165 -173
-241 -75 -131 -162 -374 -179 -500 -3 -22 -8 -50 -10 -62 -6 -26 -13 -78 -20
-158 -3 -33 -8 -80 -11 -105 -2 -25 -6 -70 -9 -100 -2 -30 -5 -55 -5 -55 -2 0
-5 -25 -15 -120 -3 -38 -9 -88 -11 -110 -2 -22 -6 -58 -9 -80 -2 -22 -7 -60
-9 -85 -13 -110 -15 -129 -21 -188 -4 -35 -8 -73 -11 -85 -4 -19 -13 -94 -19
-152 -4 -39 -17 -140 -22 -170 -3 -16 -6 -43 -8 -60 -2 -16 -6 -46 -8 -65 -3
-19 -8 -60 -12 -90 -3 -30 -8 -66 -10 -80 -6 -42 -18 -134 -20 -160 -2 -14 -5
-38 -8 -55 -3 -16 -8 -52 -12 -80 -16 -135 -22 -179 -29 -225 -3 -19 -8 -53
-11 -75 -2 -22 -6 -53 -9 -70 -3 -16 -7 -54 -11 -84 -3 -30 -7 -64 -10 -75 -2
-12 -6 -43 -9 -71 -7 -64 -16 -133 -22 -165 -3 -14 -7 -45 -10 -70 -2 -25 -7
-58 -9 -75 -2 -16 -6 -48 -9 -70 -3 -22 -8 -60 -11 -85 -4 -25 -8 -66 -11 -91
l-5 -46 114 -56 c102 -51 208 -107 277 -148 53 -31 172 -122 177 -135 3 -8 11
-14 19 -14 8 0 14 -3 14 -7 0 -5 13 -23 29 -42 59 -69 107 -189 129 -321 8
-50 7 -359 -1 -460 -18 -216 -27 -300 -42 -427 l-7 -53 39 14 c113 40 312 202
412 336 14 19 34 44 43 54 10 11 30 38 45 60 15 23 30 43 33 46 15 15 79 120
73 120 -4 0 2 7 13 15 10 8 15 15 9 15 -7 0 -7 3 0 8 10 7 23 28 62 101 13 24
35 64 49 88 13 24 24 50 24 58 0 8 3 15 8 15 6 0 63 118 68 140 0 3 12 30 26
60 26 58 39 92 39 100 0 3 6 14 13 25 7 11 15 29 18 40 3 11 20 58 38 105 17
47 33 92 35 100 2 8 4 15 5 15 1 0 3 7 5 15 3 8 18 60 36 115 17 55 35 116 40
135 5 19 11 42 14 50 7 29 54 225 59 250 3 14 7 36 11 50 12 55 54 319 60 380
4 36 9 73 11 84 16 86 22 503 9 685 l-6 84 53 -51 c29 -28 67 -63 83 -78 17
-15 77 -70 134 -123 57 -53 122 -113 145 -133 23 -21 70 -65 106 -98 l65 -61
23 28 c12 15 33 41 45 57 12 15 31 38 42 50 11 12 54 62 95 111 82 99 108 129
150 174 16 17 25 31 22 31 -4 0 -2 4 3 8 6 4 44 48 85 97 41 50 80 95 85 101
14 16 86 100 135 159 59 71 123 145 138 161 7 8 11 14 8 14 -2 0 13 18 35 40
22 22 37 40 34 40 -3 0 4 10 17 23 13 13 34 37 48 54 14 17 43 52 65 79 22 26
49 58 60 69 11 12 36 41 55 66 48 60 61 76 90 108 14 15 43 49 65 76 22 27 82
99 134 159 51 61 105 125 120 142 14 17 42 51 61 74 19 23 42 50 50 59 8 9 47
55 85 101 82 100 114 138 135 159 8 9 33 39 55 66 22 27 47 58 56 68 13 14 16
37 15 105 -2 85 -4 91 -75 252 -41 91 -79 176 -86 190 -7 14 -27 59 -45 100
-18 41 -50 112 -71 158 -22 46 -39 90 -39 98 0 8 -4 14 -10 14 -5 0 -10 4 -10
10 0 13 -45 109 -166 357 -57 116 -104 217 -104 222 0 6 -5 11 -11 11 -6 0 -9
7 -6 15 4 8 2 17 -2 19 -9 6 -61 141 -86 226 -54 181 -87 360 -89 492 -1 38
-4 68 -8 68 -7 0 -2 368 6 470 7 86 15 172 21 210 4 32 8 58 20 158 4 37 11
110 21 211 3 31 7 105 10 166 2 60 6 132 7 158 1 27 -1 51 -5 54 -5 2 -5 10
-1 16 10 16 11 217 0 217 -4 0 -4 8 1 18 10 21 9 83 -1 100 -5 6 -4 12 0 12 5
0 8 15 6 33 -1 17 -5 97 -8 177 -3 80 -7 186 -9 235 -11 212 -17 335 -21 405
-8 129 -23 480 -24 575 l-1 51 -45 0 c-41 0 -49 -4 -84 -46z"/>
</g>
</svg>
